# Alias OBJ Model File
# Exported from SketchUp, (c) 2000-2012 Trimble Navigation Limited
# File units = meters

mtllib tabuleiro.mtl

g Mesh1 tabuleiro Model

usemtl _1
v 2.22158 0.15 -4.9845
vt 0.364322 0.9969
vn 0 1 -0
v 2.22158 0.15 0.0155004
vt 0.364322 -0.00310009
v 7.22158 0.15 0.0155004
vt 1.36432 -0.00310009
v 7.22158 0.15 -4.9845
vt 1.36432 0.9969
f 1/1/1 2/2/1 3/3/1 4/4/1 

vt 0.00310009 0.03
vn -1 0 -0
vt -0.9969 0.03
v 2.22158 0.05 -4.9845
vt -0.9969 0.01
v 2.22158 0.05 0.0155004
vt 0.00310009 0.01
f 2/5/2 1/6/2 5/7/2 6/8/2 

vt -0.364322 0.03
vn 0 0 -1
vt -1.36432 0.03
v 7.22158 0.05 -4.9845
vt -1.36432 0.01
vt -0.364322 0.01
f 1/9/3 4/10/3 7/11/3 5/12/3 

vt 0.9969 0.03
vn 1 0 -0
vt -0.00310009 0.03
v 7.22158 0.05 0.0155004
vt -0.00310009 0.01
vt 0.9969 0.01
f 4/13/4 3/14/4 8/15/4 7/16/4 

vt 1.36432 0.03
vn 0 0 1
vt 0.364322 0.03
vt 0.364322 0.01
vt 1.36432 0.01
f 3/17/5 2/18/5 6/19/5 8/20/5 

vt -0.364322 -0.00310009
vn 0 -1 -0
vt -0.364322 0.9969
vt -1.36432 0.9969
vt -1.36432 -0.00310009
f 6/21/6 5/22/6 7/23/6 8/24/6 

g Mesh2 board Model

usemtl _Wood_Cherry_Original_1
v 7.52158 0.04 -5.31347
vt -3.89414 0
v 1.92158 0.04 -5.31347
vt -0.832028 0
v 1.92158 0.35 -5.31347
vt -0.832028 0.16951
v 7.52158 0.35 -5.31347
vt -3.89414 0.16951
f 9/25/3 10/26/3 11/27/3 12/28/3 

usemtl Wood_Cherry_Original
vt 0 220.472
v 2.22158 0.04 -5.01347
vt 11.811 208.661
vt 220.472 220.472
f 10/29/1 13/30/1 9/31/1

v 2.22158 0.04 -0.013465
vt 11.811 11.811
f 13/30/1 10/29/1 14/32/1

v 1.92158 0.04 0.286535
vt 0 0
f 15/33/1 14/32/1 10/29/1

v 7.52158 0.04 0.286535
vt 220.472 0
f 14/32/1 15/33/1 16/34/1

usemtl _Wood_Cherry_Original_1
vt 0.832028 0
vt 3.89414 0
v 7.52158 0.35 0.286535
vt 3.89414 0.16951
v 1.92158 0.35 0.286535
vt 0.832028 0.16951
f 15/35/5 16/36/5 17/37/5 18/38/5 

vt -0.172518 0
vt 2.8896 0
vt 2.8896 0.16951
vt -0.172518 0.16951
f 16/39/4 9/40/4 12/41/4 17/42/4 

usemtl Wood_Cherry_Original
v 7.22158 0.04 -5.01347
vt 208.661 208.661
f 9/31/1 19/43/1 16/34/1

f 9/31/1 13/30/1 19/43/1

usemtl _Wood_Cherry_Original_1
vt 3.7301 0
v 7.22158 0.35 -5.01347
vt 3.7301 0.16951
v 2.22158 0.35 -5.01347
vt 0.99607 0.16951
vt 0.99607 0
f 19/44/5 20/45/5 21/46/5 13/47/5 

usemtl Wood_Cherry_Original
v 7.22158 0.04 -0.013465
vt -11.811 -2.36265e-013
vn -1 -1.13229e-015 7.2337e-017
v 7.22158 0.05 -0.013465
vt -11.811 0.393701
v 7.22158 0.05 -4.9845
vt -207.521 0.393701
vt -207.521 4.33071
v 7.22158 0.15 -0.013465
vt -11.811 4.33071
v 7.22158 0.35 -0.013465
vt -11.811 12.2047
vt -208.661 12.2047
vt -208.661 -2.36265e-013
f 22/48/7 23/49/7 24/50/7 4/51/7 25/52/7 26/53/7 20/54/7 19/55/7 

usemtl _Wood_Cherry_Original_1
vt -0.99607 0
v 2.22158 0.05 -0.013465
vt -0.99607 0.00546807
vt -3.7301 0.00546807
vt -3.7301 0
f 14/56/3 27/57/3 23/58/3 22/59/3 

v 2.22158 0.35 -0.013465
vt -0.00847574 0.16951
v 2.22158 0.15 -0.013465
vt -0.00847574 0.0601487
vt 2.70972 0.0601487
v 2.22158 0.05 -4.9845
vt 2.70972 0.00546807
vt -0.00847574 0.00546807
vt -0.00847574 0
vt 2.72556 0
vt 2.72556 0.16951
f 28/60/4 29/61/4 1/62/4 30/63/4 27/64/4 14/65/4 13/66/4 21/67/4 

vt -3.7301 0.16951
vt -3.7301 0.0601487
vt -0.99607 0.0601487
vt -0.99607 0.16951
f 26/68/3 25/69/3 29/70/3 28/71/3 

f 27/57/3 29/70/3 25/69/3 23/58/3 

f 29/61/4 27/64/4 30/63/4 1/62/4 

usemtl Wood_Cherry_Original
vn -1 -7.21911e-015 1.45224e-016
f 23/49/8 25/52/8 4/51/8 24/50/8 

usemtl _Wood_Cherry_Original_1
vt 0.99607 -0.00847574
vt 3.89414 -0.172518
vt 3.7301 -0.00847574
f 28/72/1 17/73/1 26/74/1

vt 0.832028 -0.172518
f 28/72/1 18/75/1 17/73/1

vt 0.832028 2.8896
f 18/75/1 28/72/1 11/76/1

vt 0.99607 2.72556
f 21/77/1 11/76/1 28/72/1

vt 3.89414 2.8896
f 11/76/1 21/77/1 12/78/1

vt 3.7301 2.72556
f 12/78/1 21/77/1 20/79/1

f 12/78/1 20/79/1 17/73/1

f 26/74/1 17/73/1 20/79/1

vt -2.8896 0
vt 0.172518 0
vt 0.172518 0.16951
vt -2.8896 0.16951
f 10/80/2 15/81/2 18/82/2 11/83/2 

usemtl Wood_Cherry_Original
vt 208.661 11.811
f 14/32/1 16/34/1 22/84/1

f 22/84/1 16/34/1 19/43/1

